<svg width="700" height="584" viewBox="0 0 700 584" fill="none" xmlns="http://www.w3.org/2000/svg">
<path opacity="0.0946098" d="M700 396.249V283.751C700 276.763 696.298 270.32 690.275 266.851L593.225 210.602C587.202 207.133 579.798 207.133 573.775 210.602L476.725 266.851C470.702 270.32 467 276.812 467 283.751V396.249C467 403.237 470.702 409.68 476.725 413.149L573.775 469.398C579.798 472.867 587.202 472.867 593.225 469.398L690.275 413.149C696.248 409.68 700 403.188 700 396.249Z" fill="url(#paint0_linear_51_1471)"/>
<path opacity="0.0946098" d="M397 494.872V548.128C397 551.445 398.77 554.464 401.573 556.147L447.402 582.775C450.254 584.408 453.746 584.408 456.598 582.775L502.427 556.147C505.279 554.513 507 551.445 507 548.128V494.872C507 491.555 505.23 488.536 502.427 486.853L456.598 460.225C453.746 458.592 450.254 458.592 447.402 460.225L401.573 486.853C398.77 488.487 397 491.555 397 494.872Z" fill="url(#paint1_linear_51_1471)"/>
<path opacity="0.0946098" d="M424 387.178V155.822C424 141.489 416.34 128.194 403.936 121.028L203.589 5.37489C191.135 -1.79163 175.815 -1.79163 163.411 5.37489L-36.9357 121.028C-49.34 128.244 -57 141.489 -57 155.822V387.178C-57 401.511 -49.34 414.806 -36.9357 421.972L163.411 537.625C175.815 544.792 191.135 544.792 203.589 537.625L403.936 421.972C416.34 414.806 424 401.511 424 387.178Z" fill="url(#paint2_linear_51_1471)"/>
<defs>
<linearGradient id="paint0_linear_51_1471" x1="583.453" y1="207.911" x2="583.453" y2="472.023" gradientUnits="userSpaceOnUse">
<stop stop-color="#D4145A"/>
<stop offset="1" stop-color="#2E3192"/>
</linearGradient>
<linearGradient id="paint1_linear_51_1471" x1="452.015" y1="584" x2="452.015" y2="458.982" gradientUnits="userSpaceOnUse">
<stop stop-color="#D4145A"/>
<stop offset="1" stop-color="#2E3192"/>
</linearGradient>
<linearGradient id="paint2_linear_51_1471" x1="183.49" y1="0.00627689" x2="183.49" y2="543.02" gradientUnits="userSpaceOnUse">
<stop stop-color="#D4145A"/>
<stop offset="1" stop-color="#2E3192"/>
</linearGradient>
</defs>
</svg>
